# xmcd CD database file
#
# Track frame offsets:
#	150
#	8908
#	22813
#	37095
#	49653
#	62068
#	74618
#	88648
#	100840
#	111640
#	122613
#	133428
#	146103
#	160340
#	173240
#	185108
#
# Disc length: 2621 seconds
#
# Revision: 0
# Processed by: cddbd v1.5.1PL0 Copyright (c) Steve Scherf et al.
# Submitted via: CDex 1.51
#
DISCID=f00a3b10
DTITLE=Ray Charles - I Can't Stop Loving You
DYEAR=1992
DGENRE=Blues
TTITLE0=Hit The Road Jack 
TTITLE1=I Can't Stop Loving You
TTITLE2=Walkin' And Talkin'
TTITLE3=I Had My Fun
TTITLE4=Kiss Me Baby
TTITLE5=I Won't Let You Go
TTITLE6=Baby Let Me Hold Your Hand
TTITLE7=See See Rider
TTITLE8=Sitting On The Top Of The World
TTITLE9=I Wonder Who's Kissing Her Now
TTITLE10=All The Girls In Town
TTITLE11=I'm Glad For Your Sake
TTITLE12=Blues Is My Middle Name
TTITLE13=Snow Is Fallin'
TTITLE14=Tell Me Baby
TTITLE15=If I Give My Love
EXTD=YEAR: 1992
EXTT0=
EXTT1=
EXTT2=
EXTT3=
EXTT4=
EXTT5=
EXTT6=
EXTT7=
EXTT8=
EXTT9=
EXTT10=
EXTT11=
EXTT12=
EXTT13=
EXTT14=
EXTT15=
PLAYORDER=
